<svg width="24" height="24" viewBox="0 0 24 24" fill="none" xmlns="http://www.w3.org/2000/svg">
<path d="M12.84 3.77C13.2058 3.26238 13.6782 2.84092 14.224 2.53516C14.7699 2.2294 15.3761 2.04675 16 2C16.0596 2.57335 16.0016 3.15284 15.8297 3.70304C15.6578 4.25324 15.3755 4.7626 15 5.2C14.6613 5.67035 14.2077 6.04602 13.6825 6.29111C13.1573 6.53621 12.578 6.64256 12 6.6C11.9418 6.09602 11.9863 5.58547 12.1306 5.09912C12.275 4.61276 12.5163 4.16065 12.84 3.77ZM12.14 7.77C12.82 7.77 14.07 6.84 15.7 6.84C16.4704 6.80693 17.2363 6.97373 17.9232 7.32418C18.6101 7.67464 19.1946 8.19683 19.62 8.84C18.9581 9.22562 18.4099 9.77917 18.0306 10.4447C17.6513 11.1102 17.4545 11.864 17.46 12.63C17.4634 13.4967 17.7197 14.3435 18.1976 15.0665C18.6754 15.7895 19.354 16.3572 20.15 16.7C20.15 16.7 18.27 22 15.72 22C14.56 22 13.65 21.21 12.42 21.21C11.19 21.21 9.92 22.03 9.11 22.03C6.78 22.03 3.85001 17.03 3.85001 12.96C3.85001 8.89 6.33 6.9 8.66 6.9C10.18 6.9 11.35 7.77 12.14 7.77Z" fill="currentColor"/>
</svg>
