<svg width="24" height="24" viewBox="0 0 24 24" fill="none" xmlns="http://www.w3.org/2000/svg">
<path fill-rule="evenodd" clip-rule="evenodd" d="M12.0072 2C6.47403 2 2 6.58333 2 12.2542C2 16.7875 4.86592 20.6229 8.84216 21.9813C9.33996 22.0833 9.52228 21.7604 9.52228 21.4896C9.52228 21.2521 9.50589 20.4375 9.50589 19.5875C6.72191 20.1979 6.14217 18.3646 6.14217 18.3646C5.69559 17.1771 5.03186 16.8708 5.03186 16.8708C4.12025 16.2437 5.09741 16.2438 5.09741 16.2438C6.10734 16.3125 6.63792 17.2958 6.63792 17.2958C7.53314 18.8583 8.97327 18.4167 9.55506 18.1438C9.637 17.4813 9.90331 17.0229 10.184 16.7688C7.96333 16.5312 5.62798 15.6479 5.62798 11.7104C5.62798 10.5896 6.0254 9.67292 6.65431 8.96042C6.55393 8.70625 6.20772 7.65417 6.75469 6.24375C6.75469 6.24375 7.59869 5.97292 9.50589 7.29583C10.3212 7.07083 11.1632 6.95625 12.0072 6.95625C12.8512 6.95625 13.7136 7.075 14.5085 7.29583C16.4136 5.97083 17.2597 6.24375 17.2597 6.24375C17.8066 7.65208 17.4584 8.70625 17.36 8.96042C18.0053 9.67292 18.3864 10.5896 18.3864 11.7104C18.3864 15.65 16.051 16.5146 13.814 16.7688C14.1786 17.0917 14.4941 17.7021 14.4941 18.6708C14.4941 20.0458 14.4777 21.15 14.4777 21.4896C14.4777 21.7604 14.66 22.0833 15.1578 21.9813C19.1341 20.6229 22 16.7875 22 12.2542C22.0164 6.58333 17.526 2 12.0092 2L12.0072 2Z" fill="currentColor"/>
</svg>
