<svg width="24" height="24" viewBox="0 0 24 24" fill="none" xmlns="http://www.w3.org/2000/svg">
<path fill-rule="evenodd" clip-rule="evenodd" d="M12 5.86667C13.8778 5.86667 15.1445 6.67778 15.8667 7.35556L18.6889 4.6C16.9556 2.98889 14.7 2 12 2C8.0889 2 4.71113 4.24444 3.06668 7.51111L6.30001 10.0222C7.11113 7.61111 9.35557 5.86667 12 5.86667V5.86667Z" fill="#EA4335"/>
<path fill-rule="evenodd" clip-rule="evenodd" d="M21.6 12.2222C21.6 11.4 21.5333 10.8 21.3889 10.1778H12V13.8889H17.5111C17.4 14.8111 16.8 16.2 15.4667 17.1333L18.6222 19.5778C20.5111 17.8333 21.6 15.2667 21.6 12.2222V12.2222Z" fill="#4285F4"/>
<path fill-rule="evenodd" clip-rule="evenodd" d="M6.31111 13.9778C6.1 13.3556 5.97778 12.6889 5.97778 12C5.97778 11.3111 6.1 10.6444 6.3 10.0222L3.06667 7.51111C2.38889 8.86666 2 10.3889 2 12C2 13.6111 2.38889 15.1333 3.06667 16.4889L6.31111 13.9778V13.9778Z" fill="#FBBC05"/>
<path fill-rule="evenodd" clip-rule="evenodd" d="M12 22C14.7 22 16.9667 21.1111 18.6222 19.5778L15.4667 17.1333C14.6222 17.7222 13.4889 18.1333 12 18.1333C9.35557 18.1333 7.11112 16.3889 6.31112 13.9778L3.07779 16.4889C4.72223 19.7556 8.0889 22 12 22V22Z" fill="#34A853"/>
</svg>
