<svg width="80" height="80" viewBox="0 0 80 80" fill="none" xmlns="http://www.w3.org/2000/svg">
<path fill-rule="evenodd" clip-rule="evenodd" d="M71.6667 24.7415C71.6667 22.8384 70.6525 21.0795 69.0055 20.1259L42.6722 4.88032C41.0192 3.92336 38.9807 3.92336 37.3278 4.88032L10.9945 20.1259C9.34743 21.0795 8.33331 22.8384 8.33331 24.7415V55.2583C8.33331 57.1615 9.34743 58.9204 10.9945 59.8739L37.3278 75.1195C38.9807 76.0765 41.0192 76.0765 42.6722 75.1195L69.0055 59.8739C70.6525 58.9204 71.6667 57.1615 71.6667 55.2583V24.7415ZM58.9752 48.6742C59.1363 50.124 58.336 51.5102 56.9998 52.0956L41.3385 58.9565C40.486 59.33 39.5161 59.3301 38.6635 58.9566L23.0004 52.0955C21.6642 51.5102 20.8638 50.124 21.0249 48.6741L22.9137 31.6798C23.0165 30.7546 23.5015 29.9146 24.2513 29.363L38.0256 19.2295C39.2007 18.365 40.8014 18.365 41.9764 19.2296L55.7489 29.363C56.4986 29.9146 56.9835 30.7546 57.0863 31.6797L58.9752 48.6742Z" fill="#4190EB"/>
</svg>
