<svg width="20" height="20" viewBox="0 0 20 20" fill="none" xmlns="http://www.w3.org/2000/svg">
  <g opacity="1.0">
<path d="M10.3016 13.3017C8.98414 12.7175 7.71113 12.7112 6.46192 13.4937C5.93811 13.8207 5.43335 14.1731 4.92541 14.5239C4.6778 14.6969 4.43176 14.8731 4.18097 15.0413C4.86538 15.8311 5.70338 16.4732 6.64394 16.9287C7.5845 17.3841 8.60794 17.6434 9.65191 17.6906C10.6959 17.7378 11.7385 17.5721 12.7164 17.2034C13.6942 16.8347 14.5868 16.2708 15.3397 15.5461C14.5385 15.3531 13.7643 15.0615 13.0349 14.6778C12.1302 14.2064 11.2365 13.7159 10.3016 13.3017Z" fill="white"/>
<path d="M7.09366 4.80165C8.50636 4.80165 9.82858 5.21435 11.1318 5.69689C13.2159 6.46832 15.2762 7.31277 17.4159 7.92864C17.024 6.52795 16.2434 5.26689 15.1645 4.29147C14.0856 3.31604 12.7525 2.66615 11.3195 2.41702C9.88652 2.16789 8.41229 2.32972 7.06747 2.88377C5.72266 3.43782 4.56226 4.36144 3.72064 5.54769L3.81112 5.51117C4.87144 5.11593 5.95239 4.80006 7.09366 4.80165Z" fill="white"/>
<path d="M12.7857 8.20486C11.3127 7.64771 9.86506 7.02073 8.29998 6.74772C7.3768 6.57473 6.42717 6.60289 5.51586 6.83026C4.51182 7.09926 3.53344 7.45619 2.59205 7.89692C2.04692 9.82814 2.27462 11.8957 3.22698 13.662C3.43491 13.5461 3.63649 13.416 3.8349 13.2826C4.68252 12.716 5.4857 12.0858 6.37459 11.5937C7.29998 11.0858 8.27935 10.8858 9.31268 11.1382C10.4873 11.4239 11.5349 12.0128 12.5889 12.581C13.8587 13.2699 15.173 13.8382 16.6238 13.9144C17.3268 12.7297 17.698 11.3777 17.6984 10.0001C17.6984 9.95406 17.6984 9.90803 17.6984 9.862C17.0222 9.68422 16.3508 9.49058 15.6905 9.26042C14.7169 8.92073 13.7487 8.56888 12.7857 8.20486Z" fill="white"/>
</g>
</svg>
