<svg width="20" height="20" viewBox="0 0 20 20" fill="none" xmlns="http://www.w3.org/2000/svg">
<g opacity="1.0">
<path d="M15.1142 9.72383C15.9809 10.0191 16.8237 10.3746 17.6698 10.6572C17.6872 10.4397 17.6984 10.2207 17.6984 10C17.6976 8.18738 17.0574 6.43312 15.8904 5.04608C14.7235 3.65904 13.1046 2.72815 11.3188 2.4173C9.53302 2.10646 7.69481 2.43559 6.12782 3.34674C4.56082 4.2579 3.36551 5.69266 2.75232 7.39843C4.78407 6.96668 6.69994 7.47939 8.43328 8.84288C9.02693 9.30955 9.57137 9.83176 10.119 10.3524C11.5095 9.32224 13.4714 9.16669 15.1142 9.72383Z" fill="currentColor"/>
<path d="M15.5905 11.4697C14.1985 10.9935 12.5747 10.8221 11.2667 11.3967C11.3762 11.4904 11.4874 11.5824 11.6016 11.6729C13.0479 12.8411 14.7579 13.6378 16.5826 13.9936C16.9239 13.4299 17.1907 12.8243 17.3762 12.192C16.7905 11.9316 16.1985 11.6777 15.5905 11.4697Z" fill="currentColor"/>
<path d="M8.1159 10.43C6.36986 9.05068 4.42384 8.54275 2.36828 9.00148C2.15848 10.6004 2.45618 12.2248 3.21937 13.6454C3.98255 15.066 5.17265 16.211 6.62166 16.9188C8.07067 17.6265 9.70539 17.8613 11.295 17.5899C12.8846 17.3185 14.3489 16.5547 15.481 15.4062C13.9504 14.9851 12.5222 14.2554 11.2841 13.2618C10.173 12.3808 9.23018 11.3062 8.1159 10.43Z" fill="currentColor"/>
</g>
</svg>
