<svg width="60" height="60" viewBox="0 0 60 60" fill="none" xmlns="http://www.w3.org/2000/svg">
<path d="M29.6519 4C29.6519 6.11941 17.7945 9.16902 8 9.16902V32.3148C8.00031 34.6845 8.59804 37.017 9.73947 39.1027C10.8809 41.1884 12.5303 42.962 14.5394 44.2641C19.405 47.4048 25.7935 51.7923 29.6519 55.355C33.5104 51.7923 39.9184 47.4048 44.7645 44.2641C46.7736 42.962 48.423 41.1884 49.5644 39.1027C50.7059 37.017 51.3036 34.6845 51.3039 32.3148V9.16902C41.5094 9.16902 29.6519 6.11941 29.6519 4Z" fill="url(#paint0_linear_854_1030)"/>
<path d="M29.6519 4C29.6519 6.11941 17.7945 9.16902 8 9.16902V32.3148C8.00031 34.6845 8.59804 37.017 9.73947 39.1027C10.8809 41.1884 12.5303 42.962 14.5394 44.2641C19.405 47.4048 25.7935 51.7923 29.6519 55.355C33.5104 51.7923 39.9184 47.4048 44.7645 44.2641C46.7736 42.962 48.423 41.1884 49.5644 39.1027C50.7059 37.017 51.3036 34.6845 51.3039 32.3148V9.16902C41.5094 9.16902 29.6519 6.11941 29.6519 4Z" fill="white" fill-opacity="0.15"/>
<path d="M29.6519 4C29.6519 6.11941 17.7945 9.16902 8 9.16902V32.3148C8.00031 34.6845 8.59804 37.017 9.73947 39.1027C10.8809 41.1884 12.5303 42.962 14.5394 44.2641C19.405 47.4048 25.7935 51.7923 29.6519 55.355C33.5104 51.7923 39.9184 47.4048 44.7645 44.2641C46.7736 42.962 48.423 41.1884 49.5644 39.1027C59.6775 20.6233 29.6519 13.7441 29.6519 4Z" fill="white" fill-opacity="0.1" style="mix-blend-mode:soft-light"/>
<path d="M29.6519 4C29.6519 6.11941 17.7945 9.16902 8 9.16902V32.3148C8.00031 34.6845 8.59804 37.017 9.73947 39.1027C10.8809 41.1884 12.5303 42.962 14.5394 44.2641C19.405 47.4048 25.7935 51.7923 29.6519 55.355C33.5104 51.7923 39.9184 47.4048 44.7645 44.2641C46.7736 42.962 48.423 41.1884 49.5644 39.1027C59.6775 20.6233 29.6519 13.7441 29.6519 4Z" fill="white" fill-opacity="0.1" style="mix-blend-mode:soft-light"/>
<path d="M29.6519 4C29.6519 6.11941 17.7945 9.16902 8 9.16902V32.3148C8.00031 34.6845 8.59804 37.017 9.73947 39.1027C10.8809 41.1884 12.5303 42.962 14.5394 44.2641C19.405 47.4048 25.7935 51.7923 29.6519 55.355C29.6519 55.355 29.6519 35.864 29.6519 4Z" fill="white" fill-opacity="0.1" style="mix-blend-mode:lighten"/>
<path d="M29.6519 4C29.6519 6.11941 17.7945 9.16902 8 9.16902V32.3148C8.00031 34.6845 8.59804 37.017 9.73947 39.1027C10.8809 41.1884 12.5303 42.962 14.5394 44.2641C19.405 47.4048 25.7935 51.7923 29.6519 55.355C29.6519 55.355 29.6519 35.864 29.6519 4Z" fill="white" fill-opacity="0.1" style="mix-blend-mode:lighten"/>
<g filter="url(#filter0_d_854_1030)">
<path d="M29.6519 9.05103C29.6519 10.7003 20.1343 13.0735 12.2726 13.0735V31.0852C12.2728 32.9293 12.7526 34.7444 13.6688 36.3675C14.585 37.9906 15.9089 39.3707 17.5215 40.384C21.427 42.8281 26.5549 46.2423 29.6519 49.0148C32.7489 46.2423 37.8924 42.8281 41.7823 40.384C43.3949 39.3707 44.7188 37.9906 45.635 36.3675C46.5512 34.7444 47.031 32.9293 47.0312 31.0852V13.0735C39.1695 13.0735 29.6519 10.7003 29.6519 9.05103Z" fill="#A495FF" fill-opacity="0.7" style="mix-blend-mode:screen" shape-rendering="crispEdges"/>
</g>
<path d="M12.2726 13.0732V31.0849C12.2728 32.929 12.7526 34.7441 13.6688 36.3672C14.585 37.9903 15.9089 39.3705 17.5215 40.3837C21.427 42.8278 26.5549 46.2421 29.6519 49.0146C28.6864 24.275 12.2726 13.0732 12.2726 13.0732Z" fill="white" fill-opacity="0.3" style="mix-blend-mode:screen"/>
<defs>
<filter id="filter0_d_854_1030" x="9.27257" y="7.05103" width="40.7587" height="45.9638" filterUnits="userSpaceOnUse" color-interpolation-filters="sRGB">
<feFlood flood-opacity="0" result="BackgroundImageFix"/>
<feColorMatrix in="SourceAlpha" type="matrix" values="0 0 0 0 0 0 0 0 0 0 0 0 0 0 0 0 0 0 127 0" result="hardAlpha"/>
<feOffset dy="1"/>
<feGaussianBlur stdDeviation="1.5"/>
<feComposite in2="hardAlpha" operator="out"/>
<feColorMatrix type="matrix" values="0 0 0 0 0 0 0 0 0 0 0 0 0 0 0 0 0 0 0.5 0"/>
<feBlend mode="normal" in2="BackgroundImageFix" result="effect1_dropShadow_854_1030"/>
<feBlend mode="normal" in="SourceGraphic" in2="effect1_dropShadow_854_1030" result="shape"/>
</filter>
<linearGradient id="paint0_linear_854_1030" x1="29.6519" y1="4" x2="29.6519" y2="55.355" gradientUnits="userSpaceOnUse">
<stop stop-color="#D172FF"/>
<stop offset="0.0625" stop-color="#A752E1"/>
<stop offset="0.505208" stop-color="#5F8BC8"/>
<stop offset="1" stop-color="#79B8B8"/>
</linearGradient>
</defs>
</svg>
