<svg width="60" height="60" viewBox="0 0 60 60" fill="none" xmlns="http://www.w3.org/2000/svg">
<g filter="url(#filter0_di_854_1110)">
<path d="M40.93 15.9662C40.93 17.3495 35.4481 19.3399 30.9199 19.3399V34.4469C30.9201 35.9936 31.1964 37.516 31.7241 38.8773C32.2518 40.2386 33.0143 41.3962 33.9432 42.246C36.1926 44.296 39.1462 47.1596 40.93 49.485C42.7138 47.1596 45.6763 44.296 47.9168 42.246C48.8456 41.3962 49.6081 40.2386 50.1358 38.8773C50.6635 37.516 50.9399 35.9936 50.94 34.4469V19.3399C46.4119 19.3399 40.93 17.3495 40.93 15.9662Z" fill="url(#paint0_linear_854_1110)"/>
</g>
<path d="M40.93 15.9662C40.93 17.3495 35.4481 19.3399 30.9199 19.3399V34.4469C30.9201 35.9936 31.1964 37.516 31.7241 38.8773C32.2518 40.2386 33.0143 41.3962 33.9432 42.246C36.1926 44.296 39.1462 47.1596 40.93 49.485C42.7138 47.1596 45.6763 44.296 47.9168 42.246C48.8456 41.3962 49.6081 40.2386 50.1358 38.8773C50.6635 37.516 50.9399 35.9936 50.94 34.4469V19.3399C46.4119 19.3399 40.93 17.3495 40.93 15.9662Z" fill="url(#paint1_linear_854_1110)"/>
<path d="M40.8515 15.9662C40.8515 17.3495 35.4126 19.3399 30.9199 19.3399V34.4469C30.9201 35.9936 31.1942 37.516 31.7178 38.8773C32.2414 40.2386 32.9979 41.3962 33.9195 42.246C36.1513 44.296 39.0817 47.1596 40.8515 49.485C42.6214 47.1596 45.5607 44.296 47.7836 42.246C48.7052 41.3962 49.4617 40.2386 49.9853 38.8773C54.6241 26.816 40.8515 22.326 40.8515 15.9662Z" fill="white" fill-opacity="0.3" style="mix-blend-mode:soft-light"/>
<path d="M40.8515 15.9662C40.8515 17.3495 35.4126 19.3399 30.9199 19.3399V34.4469C30.9201 35.9936 31.1942 37.516 31.7178 38.8773C32.2414 40.2386 32.9979 41.3962 33.9195 42.246C36.1513 44.296 39.0817 47.1596 40.8515 49.485C42.6214 47.1596 45.5607 44.296 47.7836 42.246C48.7052 41.3962 49.4617 40.2386 49.9853 38.8773C54.6241 26.816 40.8515 22.326 40.8515 15.9662Z" fill="white" fill-opacity="0.3" style="mix-blend-mode:soft-light"/>
<path d="M40.93 15.9662C40.93 17.3495 35.4481 19.3399 30.9199 19.3399V34.4469C30.9201 35.9936 31.1964 37.516 31.7241 38.8773C32.2518 40.2386 33.0143 41.3962 33.9432 42.246C36.1926 44.296 39.1462 47.1596 40.93 49.485C40.93 49.485 40.93 36.7635 40.93 15.9662Z" fill="url(#paint2_linear_854_1110)" fill-opacity="0.7" style="mix-blend-mode:lighten"/>
<path d="M40.93 15.9662C40.93 17.3495 35.4481 19.3399 30.9199 19.3399V34.4469C30.9201 35.9936 31.1964 37.516 31.7241 38.8773C32.2518 40.2386 33.0143 41.3962 33.9432 42.246C36.1926 44.296 39.1462 47.1596 40.93 49.485C40.93 49.485 40.93 36.7635 40.93 15.9662Z" fill="url(#paint3_linear_854_1110)" fill-opacity="0.7" style="mix-blend-mode:lighten"/>
<g filter="url(#filter1_di_854_1110)">
<path d="M19.01 15.9662C19.01 17.3495 24.4919 19.3399 29.0201 19.3399V34.4469C29.0199 35.9936 28.7436 37.516 28.2159 38.8773C27.6882 40.2386 26.9257 41.3962 25.9968 42.246C23.7474 44.296 20.7939 47.1596 19.01 49.485C17.2262 47.1596 14.2637 44.296 12.0233 42.246C11.0944 41.3962 10.3319 40.2386 9.80418 38.8773C9.27648 37.516 9.00014 35.9936 9 34.4469V19.3399C13.5281 19.3399 19.01 17.3495 19.01 15.9662Z" fill="url(#paint4_linear_854_1110)"/>
</g>
<path d="M19.01 15.9662C19.01 17.3495 24.4919 19.3399 29.0201 19.3399V34.4469C29.0199 35.9936 28.7436 37.516 28.2159 38.8773C27.6882 40.2386 26.9257 41.3962 25.9968 42.246C23.7474 44.296 20.7939 47.1596 19.01 49.485C17.2262 47.1596 14.2637 44.296 12.0233 42.246C11.0944 41.3962 10.3319 40.2386 9.80418 38.8773C9.27648 37.516 9.00014 35.9936 9 34.4469V19.3399C13.5281 19.3399 19.01 17.3495 19.01 15.9662Z" fill="url(#paint5_linear_854_1110)"/>
<path d="M19.0885 15.9662C19.0885 17.3495 24.5274 19.3399 29.0201 19.3399V34.4469C29.0199 35.9936 28.7458 37.516 28.2222 38.8773C27.6986 40.2386 26.9421 41.3962 26.0205 42.246C23.7887 44.296 20.8583 47.1596 19.0885 49.485C17.3186 47.1596 14.3793 44.296 12.1564 42.246C11.2349 41.3962 10.4783 40.2386 9.95473 38.8773C5.31594 26.816 19.0885 22.326 19.0885 15.9662Z" fill="white" fill-opacity="0.3" style="mix-blend-mode:soft-light"/>
<path d="M19.0885 15.9662C19.0885 17.3495 24.5274 19.3399 29.0201 19.3399V34.4469C29.0199 35.9936 28.7458 37.516 28.2222 38.8773C27.6986 40.2386 26.9421 41.3962 26.0205 42.246C23.7887 44.296 20.8583 47.1596 19.0885 49.485C17.3186 47.1596 14.3793 44.296 12.1564 42.246C11.2349 41.3962 10.4783 40.2386 9.95473 38.8773C5.31594 26.816 19.0885 22.326 19.0885 15.9662Z" fill="white" fill-opacity="0.3" style="mix-blend-mode:soft-light"/>
<path d="M19.01 15.9662C19.01 17.3495 24.4919 19.3399 29.0201 19.3399V34.4469C29.0199 35.9936 28.7436 37.516 28.2159 38.8773C27.6882 40.2386 26.9257 41.3962 25.9968 42.246C23.7474 44.296 20.7939 47.1596 19.01 49.485C19.01 49.485 19.01 36.7635 19.01 15.9662Z" fill="url(#paint6_linear_854_1110)" fill-opacity="0.7" style="mix-blend-mode:lighten"/>
<path d="M19.01 15.9662C19.01 17.3495 24.4919 19.3399 29.0201 19.3399V34.4469C29.0199 35.9936 28.7436 37.516 28.2159 38.8773C27.6882 40.2386 26.9257 41.3962 25.9968 42.246C23.7474 44.296 20.7939 47.1596 19.01 49.485C19.01 49.485 19.01 36.7635 19.01 15.9662Z" fill="url(#paint7_linear_854_1110)" fill-opacity="0.7" style="mix-blend-mode:lighten"/>
<g filter="url(#filter2_di_854_1110)">
<path d="M29.9572 5C29.9572 7.03655 20.9606 9.96692 13.5292 9.96692V32.2077C13.5295 34.4848 13.983 36.7261 14.849 38.7302C15.7151 40.7344 16.9665 42.4387 18.4909 43.6898C22.1826 46.7078 27.0297 50.9237 29.9572 54.3471C32.8847 50.9237 37.7467 46.7078 41.4236 43.6898C42.948 42.4387 44.1994 40.7344 45.0655 38.7302C45.9315 36.7261 46.385 34.4848 46.3852 32.2077V9.96692C38.9539 9.96692 29.9572 7.03655 29.9572 5Z" fill="url(#paint8_linear_854_1110)"/>
</g>
<path d="M29.9572 5C29.9572 7.03655 20.9606 9.96692 13.5292 9.96692V32.2077C13.5295 34.4848 13.983 36.7261 14.849 38.7302C15.7151 40.7344 16.9665 42.4387 18.4909 43.6898C22.1826 46.7078 27.0297 50.9237 29.9572 54.3471C32.8847 50.9237 37.7467 46.7078 41.4236 43.6898C42.948 42.4387 44.1994 40.7344 45.0655 38.7302C45.9315 36.7261 46.385 34.4848 46.3852 32.2077V9.96692C38.9539 9.96692 29.9572 7.03655 29.9572 5Z" fill="url(#paint9_linear_854_1110)"/>
<path d="M29.8285 5C29.8285 7.03655 20.9024 9.96692 13.5292 9.96692V32.2077C13.5295 34.4848 13.9794 36.7261 14.8387 38.7302C15.6979 40.7344 16.9396 42.4387 18.452 43.6898C22.1148 46.7078 26.924 50.9237 29.8285 54.3471C32.7331 50.9237 37.557 46.7078 41.2051 43.6898C42.7175 42.4387 43.9591 40.7344 44.8184 38.7302C52.4313 20.9734 29.8285 14.3631 29.8285 5Z" fill="white" fill-opacity="0.3" style="mix-blend-mode:soft-light"/>
<path d="M29.8285 5C29.8285 7.03655 20.9024 9.96692 13.5292 9.96692V32.2077C13.5295 34.4848 13.9794 36.7261 14.8387 38.7302C15.6979 40.7344 16.9396 42.4387 18.452 43.6898C22.1148 46.7078 26.924 50.9237 29.8285 54.3471C32.7331 50.9237 37.557 46.7078 41.2051 43.6898C42.7175 42.4387 43.9591 40.7344 44.8184 38.7302C52.4313 20.9734 29.8285 14.3631 29.8285 5Z" fill="white" fill-opacity="0.3" style="mix-blend-mode:soft-light"/>
<path d="M29.9572 5C29.9572 7.03655 20.9606 9.96692 13.5292 9.96692V32.2077C13.5295 34.4848 13.983 36.7261 14.849 38.7302C15.7151 40.7344 16.9665 42.4387 18.4909 43.6898C22.1826 46.7078 27.0297 50.9237 29.9572 54.3471C29.9572 54.3471 29.9572 35.6182 29.9572 5Z" fill="url(#paint10_linear_854_1110)" fill-opacity="0.7" style="mix-blend-mode:lighten"/>
<path d="M29.9572 5C29.9572 7.03655 20.9606 9.96692 13.5292 9.96692V32.2077C13.5295 34.4848 13.983 36.7261 14.849 38.7302C15.7151 40.7344 16.9665 42.4387 18.4909 43.6898C22.1826 46.7078 27.0297 50.9237 29.9572 54.3471C29.9572 54.3471 29.9572 35.6182 29.9572 5Z" fill="url(#paint11_linear_854_1110)" fill-opacity="0.7" style="mix-blend-mode:lighten"/>
<g filter="url(#filter3_i_854_1110)">
<path d="M29.9572 9.83768C29.9572 11.395 22.9598 13.6359 17.1799 13.6359V30.6436C17.1801 32.3848 17.5328 34.0988 18.2064 35.6314C18.88 37.164 19.8533 38.4672 21.0389 39.424C23.9102 41.7318 27.6803 44.9558 29.9572 47.5737C32.2342 44.9558 36.0157 41.7318 38.8755 39.424C40.0611 38.4672 41.0345 37.164 41.708 35.6314C42.3816 34.0988 42.7344 32.3848 42.7345 30.6436V13.6359C36.9546 13.6359 29.9572 11.395 29.9572 9.83768Z" fill="#A495FF" fill-opacity="0.5" style="mix-blend-mode:screen"/>
</g>
<defs>
<filter id="filter0_di_854_1110" x="27.9199" y="12.9662" width="26.0201" height="39.5188" filterUnits="userSpaceOnUse" color-interpolation-filters="sRGB">
<feFlood flood-opacity="0" result="BackgroundImageFix"/>
<feColorMatrix in="SourceAlpha" type="matrix" values="0 0 0 0 0 0 0 0 0 0 0 0 0 0 0 0 0 0 127 0" result="hardAlpha"/>
<feOffset/>
<feGaussianBlur stdDeviation="1.5"/>
<feComposite in2="hardAlpha" operator="out"/>
<feColorMatrix type="matrix" values="0 0 0 0 0 0 0 0 0 0 0 0 0 0 0 0 0 0 0.3 0"/>
<feBlend mode="normal" in2="BackgroundImageFix" result="effect1_dropShadow_854_1110"/>
<feBlend mode="normal" in="SourceGraphic" in2="effect1_dropShadow_854_1110" result="shape"/>
<feColorMatrix in="SourceAlpha" type="matrix" values="0 0 0 0 0 0 0 0 0 0 0 0 0 0 0 0 0 0 127 0" result="hardAlpha"/>
<feOffset dy="-3"/>
<feGaussianBlur stdDeviation="4"/>
<feComposite in2="hardAlpha" operator="arithmetic" k2="-1" k3="1"/>
<feColorMatrix type="matrix" values="0 0 0 0 0 0 0 0 0 0 0 0 0 0 0 0 0 0 0.4 0"/>
<feBlend mode="normal" in2="shape" result="effect2_innerShadow_854_1110"/>
</filter>
<filter id="filter1_di_854_1110" x="6" y="12.9662" width="26.0201" height="39.5188" filterUnits="userSpaceOnUse" color-interpolation-filters="sRGB">
<feFlood flood-opacity="0" result="BackgroundImageFix"/>
<feColorMatrix in="SourceAlpha" type="matrix" values="0 0 0 0 0 0 0 0 0 0 0 0 0 0 0 0 0 0 127 0" result="hardAlpha"/>
<feOffset/>
<feGaussianBlur stdDeviation="1.5"/>
<feComposite in2="hardAlpha" operator="out"/>
<feColorMatrix type="matrix" values="0 0 0 0 0 0 0 0 0 0 0 0 0 0 0 0 0 0 0.3 0"/>
<feBlend mode="normal" in2="BackgroundImageFix" result="effect1_dropShadow_854_1110"/>
<feBlend mode="normal" in="SourceGraphic" in2="effect1_dropShadow_854_1110" result="shape"/>
<feColorMatrix in="SourceAlpha" type="matrix" values="0 0 0 0 0 0 0 0 0 0 0 0 0 0 0 0 0 0 127 0" result="hardAlpha"/>
<feOffset dy="-3"/>
<feGaussianBlur stdDeviation="4"/>
<feComposite in2="hardAlpha" operator="arithmetic" k2="-1" k3="1"/>
<feColorMatrix type="matrix" values="0 0 0 0 0 0 0 0 0 0 0 0 0 0 0 0 0 0 0.4 0"/>
<feBlend mode="normal" in2="shape" result="effect2_innerShadow_854_1110"/>
</filter>
<filter id="filter2_di_854_1110" x="10.5292" y="2" width="38.856" height="55.3471" filterUnits="userSpaceOnUse" color-interpolation-filters="sRGB">
<feFlood flood-opacity="0" result="BackgroundImageFix"/>
<feColorMatrix in="SourceAlpha" type="matrix" values="0 0 0 0 0 0 0 0 0 0 0 0 0 0 0 0 0 0 127 0" result="hardAlpha"/>
<feOffset/>
<feGaussianBlur stdDeviation="1.5"/>
<feComposite in2="hardAlpha" operator="out"/>
<feColorMatrix type="matrix" values="0 0 0 0 0 0 0 0 0 0 0 0 0 0 0 0 0 0 0.3 0"/>
<feBlend mode="normal" in2="BackgroundImageFix" result="effect1_dropShadow_854_1110"/>
<feBlend mode="normal" in="SourceGraphic" in2="effect1_dropShadow_854_1110" result="shape"/>
<feColorMatrix in="SourceAlpha" type="matrix" values="0 0 0 0 0 0 0 0 0 0 0 0 0 0 0 0 0 0 127 0" result="hardAlpha"/>
<feOffset dy="-3"/>
<feGaussianBlur stdDeviation="4"/>
<feComposite in2="hardAlpha" operator="arithmetic" k2="-1" k3="1"/>
<feColorMatrix type="matrix" values="0 0 0 0 0 0 0 0 0 0 0 0 0 0 0 0 0 0 0.4 0"/>
<feBlend mode="normal" in2="shape" result="effect2_innerShadow_854_1110"/>
</filter>
<filter id="filter3_i_854_1110" x="17.1799" y="5.83768" width="25.5547" height="41.736" filterUnits="userSpaceOnUse" color-interpolation-filters="sRGB">
<feFlood flood-opacity="0" result="BackgroundImageFix"/>
<feBlend mode="normal" in="SourceGraphic" in2="BackgroundImageFix" result="shape"/>
<feColorMatrix in="SourceAlpha" type="matrix" values="0 0 0 0 0 0 0 0 0 0 0 0 0 0 0 0 0 0 127 0" result="hardAlpha"/>
<feOffset dy="-4"/>
<feGaussianBlur stdDeviation="8"/>
<feComposite in2="hardAlpha" operator="arithmetic" k2="-1" k3="1"/>
<feColorMatrix type="matrix" values="0 0 0 0 0.260417 0 0 0 0 0.627083 0 0 0 0 0.833333 0 0 0 0.25 0"/>
<feBlend mode="normal" in2="shape" result="effect1_innerShadow_854_1110"/>
</filter>
<linearGradient id="paint0_linear_854_1110" x1="40.93" y1="15.9662" x2="40.93" y2="49.485" gradientUnits="userSpaceOnUse">
<stop stop-color="#D172FF"/>
<stop offset="0.505208" stop-color="#5997EB"/>
<stop offset="1" stop-color="#4DFFFF"/>
</linearGradient>
<linearGradient id="paint1_linear_854_1110" x1="40.93" y1="15.9662" x2="40.93" y2="49.485" gradientUnits="userSpaceOnUse">
<stop stop-color="#2ED1F4" stop-opacity="0.3"/>
<stop offset="0.505208" stop-color="#397FDD" stop-opacity="0.31"/>
<stop offset="1" stop-color="#6EEFEF"/>
</linearGradient>
<linearGradient id="paint2_linear_854_1110" x1="30.9199" y1="19.2523" x2="41.3053" y2="45.7229" gradientUnits="userSpaceOnUse">
<stop stop-color="white" stop-opacity="0.44"/>
<stop offset="1" stop-color="white" stop-opacity="0.46"/>
</linearGradient>
<linearGradient id="paint3_linear_854_1110" x1="30.9199" y1="19.2523" x2="41.3053" y2="45.7229" gradientUnits="userSpaceOnUse">
<stop stop-color="white" stop-opacity="0.44"/>
<stop offset="1" stop-color="white" stop-opacity="0.46"/>
</linearGradient>
<linearGradient id="paint4_linear_854_1110" x1="19.01" y1="15.9662" x2="19.01" y2="49.485" gradientUnits="userSpaceOnUse">
<stop stop-color="#D172FF"/>
<stop offset="0.505208" stop-color="#5997EB"/>
<stop offset="1" stop-color="#4DFFFF"/>
</linearGradient>
<linearGradient id="paint5_linear_854_1110" x1="19.01" y1="15.9662" x2="19.01" y2="49.485" gradientUnits="userSpaceOnUse">
<stop stop-color="#2ED1F4" stop-opacity="0.3"/>
<stop offset="0.505208" stop-color="#397FDD" stop-opacity="0.31"/>
<stop offset="1" stop-color="#6EEFEF"/>
</linearGradient>
<linearGradient id="paint6_linear_854_1110" x1="29.0201" y1="19.2523" x2="18.6347" y2="45.7229" gradientUnits="userSpaceOnUse">
<stop stop-color="white" stop-opacity="0.44"/>
<stop offset="1" stop-color="white" stop-opacity="0.46"/>
</linearGradient>
<linearGradient id="paint7_linear_854_1110" x1="29.0201" y1="19.2523" x2="18.6347" y2="45.7229" gradientUnits="userSpaceOnUse">
<stop stop-color="white" stop-opacity="0.44"/>
<stop offset="1" stop-color="white" stop-opacity="0.46"/>
</linearGradient>
<linearGradient id="paint8_linear_854_1110" x1="29.9572" y1="5" x2="29.9572" y2="54.3471" gradientUnits="userSpaceOnUse">
<stop stop-color="#D172FF"/>
<stop offset="0.505208" stop-color="#5997EB"/>
<stop offset="1" stop-color="#4DFFFF"/>
</linearGradient>
<linearGradient id="paint9_linear_854_1110" x1="29.9572" y1="5" x2="29.9572" y2="54.3471" gradientUnits="userSpaceOnUse">
<stop stop-color="#2ED1F4" stop-opacity="0.3"/>
<stop offset="0.505208" stop-color="#397FDD" stop-opacity="0.31"/>
<stop offset="1" stop-color="#6EEFEF"/>
</linearGradient>
<linearGradient id="paint10_linear_854_1110" x1="13.5292" y1="9.83795" x2="27.6119" y2="49.8508" gradientUnits="userSpaceOnUse">
<stop stop-color="white" stop-opacity="0.44"/>
<stop offset="1" stop-color="white" stop-opacity="0.46"/>
</linearGradient>
<linearGradient id="paint11_linear_854_1110" x1="13.5292" y1="9.83795" x2="27.6119" y2="49.8508" gradientUnits="userSpaceOnUse">
<stop stop-color="white" stop-opacity="0.44"/>
<stop offset="1" stop-color="white" stop-opacity="0.46"/>
</linearGradient>
</defs>
</svg>
