<svg width="60" height="60" viewBox="0 0 60 60" fill="none" xmlns="http://www.w3.org/2000/svg">
<path d="M53.0009 9.29502C53.0009 9.29502 38.5312 7.04107 29.5009 5C20.4769 7.04107 6.00092 9.29502 6.00092 9.29502C6.00092 9.29502 5.73145 31.8407 14.4233 44.3564C17.7635 49.1648 29.5009 55 29.5009 55C29.5009 55 41.2384 49.1648 44.5785 44.3564C53.2767 31.8407 53.0009 9.29502 53.0009 9.29502V9.29502Z" fill="url(#paint0_linear_854_1104)"/>
<path d="M50 11.7796C50 11.7796 37.378 9.79614 29.5009 8C21.6292 9.79614 9.00169 11.7796 9.00169 11.7796C9.00169 11.7796 8.76663 31.6198 16.3486 42.6336C19.2622 46.865 29.5009 52 29.5009 52C29.5009 52 39.7395 46.865 42.6531 42.6336C50.2406 31.6198 50 11.7796 50 11.7796V11.7796Z" fill="url(#paint1_linear_854_1104)"/>
<path d="M49.0001 12.6078C49.0001 12.6078 36.9938 10.7145 29.5009 9C22.0132 10.7145 10.0016 12.6078 10.0016 12.6078C10.0016 12.6078 9.77806 31.5462 16.9902 42.0594C19.7617 46.0984 29.5009 51 29.5009 51C29.5009 51 39.2401 46.0984 42.0116 42.0594C49.2289 31.5462 49.0001 12.6078 49.0001 12.6078V12.6078Z" fill="url(#paint2_linear_854_1104)"/>
<path d="M29.5009 9C22.0132 10.7145 10.0016 12.6078 10.0016 12.6078C10.0016 12.6078 9.77806 31.5462 16.9902 42.0594C19.7617 46.0984 29.5009 51 29.5009 51C29.5009 50.5 29.5009 9 29.5009 9Z" fill="url(#paint3_linear_854_1104)" fill-opacity="0.5"/>
<path d="M29.5009 9C22.0132 10.7145 10.0016 12.6078 10.0016 12.6078C10.0016 12.6078 9.77806 31.5462 16.9902 42.0594C19.7617 46.0984 29.5009 51 29.5009 51C29.5009 50.5 29.5009 9 29.5009 9Z" fill="url(#paint4_linear_854_1104)" fill-opacity="0.3"/>
<path d="M29.5009 9C36.9886 10.7145 49.0001 12.6078 49.0001 12.6078C49.0001 12.6078 49.2237 31.5462 42.0116 42.0594C39.2401 46.0984 29.5009 51 29.5009 51C29.5009 50.5 29.5009 9 29.5009 9Z" fill="url(#paint5_linear_854_1104)" fill-opacity="0.5"/>
<path d="M29.5009 9C36.9886 10.7145 49.0001 12.6078 49.0001 12.6078C49.0001 12.6078 49.2237 31.5462 42.0116 42.0594C39.2401 46.0984 29.5009 51 29.5009 51C29.5009 50.5 29.5009 9 29.5009 9Z" fill="url(#paint6_linear_854_1104)" fill-opacity="0.1"/>
<defs>
<linearGradient id="paint0_linear_854_1104" x1="29.5009" y1="5" x2="29.5009" y2="55" gradientUnits="userSpaceOnUse">
<stop stop-color="#B79E78"/>
<stop offset="1" stop-color="#8F7C5F"/>
</linearGradient>
<linearGradient id="paint1_linear_854_1104" x1="29.5009" y1="8" x2="29.5009" y2="52" gradientUnits="userSpaceOnUse">
<stop stop-color="#8F7C5F"/>
<stop offset="1" stop-color="#B79E78"/>
</linearGradient>
<linearGradient id="paint2_linear_854_1104" x1="48.0009" y1="27" x2="10.0009" y2="13" gradientUnits="userSpaceOnUse">
<stop stop-color="#8F7C5F"/>
<stop offset="1" stop-color="#B79E78"/>
</linearGradient>
<linearGradient id="paint3_linear_854_1104" x1="29.0009" y1="13.5" x2="14.5009" y2="36.5" gradientUnits="userSpaceOnUse">
<stop stop-color="white"/>
<stop offset="1" stop-color="white" stop-opacity="0.17"/>
</linearGradient>
<linearGradient id="paint4_linear_854_1104" x1="29.0009" y1="9" x2="16.5009" y2="43" gradientUnits="userSpaceOnUse">
<stop stop-color="white"/>
<stop offset="0.364583" stop-color="#976A35" stop-opacity="0.697396"/>
<stop offset="0.697917" stop-color="#CDB89F" stop-opacity="0.420729"/>
<stop offset="1" stop-color="#957D61" stop-opacity="0.94"/>
</linearGradient>
<linearGradient id="paint5_linear_854_1104" x1="30.0009" y1="9" x2="42.5009" y2="43" gradientUnits="userSpaceOnUse">
<stop stop-color="#654747"/>
<stop offset="0.364583" stop-color="#976A35" stop-opacity="0.697396"/>
<stop offset="0.697917" stop-color="#CDB89F" stop-opacity="0.420729"/>
<stop offset="1" stop-color="#957D61" stop-opacity="0.94"/>
</linearGradient>
<linearGradient id="paint6_linear_854_1104" x1="41.5009" y1="39.5" x2="49.0009" y2="18.5" gradientUnits="userSpaceOnUse">
<stop stop-color="white"/>
<stop offset="1" stop-color="white" stop-opacity="0.17"/>
</linearGradient>
</defs>
</svg>
